<svg width="24" height="24" xmlns="http://www.w3.org/2000/svg">
 <title/>

 <g>
  <title>background</title>
  <rect fill="none" id="canvas_background" height="402" width="582" y="-1" x="-1"/>
 </g>
 <g>
  <title>Layer 1</title>
  <path fill="#ffffff" id="svg_1" d="m17.18,9.518c-1.263,-5.56 -4.242,-7.387 -4.562,-8.086c-0.352,-0.493 -0.733,-1.432 -0.733,-1.432c-0.002,0.019 -0.004,0.031 -0.005,0.049l0,0.013l-0.001,0c-0.002,0.015 -0.003,0.025 -0.004,0.039l0,0.015l-0.002,0c0,0.01 -0.002,0.018 -0.002,0.026l0,0.026l-0.003,0c-0.001,0.008 -0.001,0.018 -0.003,0.025l0,0.021l-0.002,0c0,0.007 0,0.015 -0.002,0.021l0,0.02l-0.002,0c0,0.01 -0.001,0.022 -0.002,0.032l0,0.002c-0.003,0.017 -0.006,0.034 -0.009,0.05l0,0.008l-0.002,0c-0.001,0.004 -0.003,0.008 -0.003,0.012l0,0.017l-0.003,0l0,0.022l-0.005,0l0,0.018l-0.005,0l0,0.021l-0.004,0l0,0.019l-0.004,0l0,0.017l-0.006,0l0,0.014l-0.004,0l0,0.018l-0.004,0l0,0.014l-0.005,0l0,0.013l-0.003,0l0,0.015l-0.004,0c-0.001,0.001 -0.001,0.003 -0.001,0.004l0,0.01l-0.003,0c-0.001,0.002 -0.001,0.004 -0.001,0.006l0,0.006l-0.002,0c-0.001,0.003 -0.002,0.008 -0.002,0.01c-0.003,0.007 -0.007,0.014 -0.01,0.021l0,0.002c-0.002,0.002 -0.004,0.005 -0.005,0.007l0,0.008l-0.004,0l0,0.008l-0.005,0l0,0.008l-0.003,0l0,0.01l-0.006,0l0,0.014l-0.004,0l0,0.004l-0.004,0l0,0.008l-0.004,0l0,0.011l-0.004,0l0,0.008l-0.006,0l0,0.011l-0.004,0l0,0.008l-0.005,0l0,0.008l-0.003,0l0,0.01l-0.005,0l0,0.008l-0.004,0l0,0.006l-0.004,0l0,0.008l-0.006,0l0,0.009l-0.004,0l0,0.006l-0.005,0l0,0.008l-0.004,0l0,0.011l-0.005,0l0,0.004l-0.003,0l0,0.008l-0.006,0l0,0.004l-0.004,0l0,0.01l-0.004,0l0,0.004l-0.004,0l0,0.008l-0.005,0l0,0.006l-0.003,0l-0.002,0.004l0,0.004l-0.002,0c-0.001,0.002 -0.002,0.002 -0.002,0.004l0,0.001l-0.001,0c-0.001,0.003 -0.002,0.005 -0.004,0.007l0,0.003l-0.001,0c-0.005,0.006 -0.008,0.012 -0.012,0.018l0,0.001c-0.002,0.002 -0.007,0.006 -0.009,0.01l0,0.002l-0.001,0c-0.001,0.001 -0.003,0.002 -0.003,0.003l0,0.003l-0.002,0l-0.003,0.003l0,0.001l-0.001,0c0,0.001 -0.002,0.002 -0.003,0.004l0,0.004l-0.003,0l-0.002,0.002l0,0.002l-0.002,0c0,0.002 -0.002,0.002 -0.002,0.003l0,0.003l-0.004,0c0,0.001 -0.001,0.002 -0.002,0.003l0,0.006l-0.003,0l0,0.004l-0.004,0l0,0.006l-0.004,0l0,0.008l-0.005,0l0,-0.008l-0.005,0l0,0.004l-0.004,0l0,0.006l-0.005,0l0,0.008l-0.005,0l0,0.004l-0.004,0l0,0.006l-0.004,0l0,0.004l-0.004,0l0,0.008l-0.006,0l0,0.004l-0.004,0l0,0.006l-0.005,0l0,0.004l-0.004,0l0,0.005l-0.005,0l0,0.01l-0.002,0l0,0.004l-0.006,0l0,0.005l-0.004,0l0,0.002l-0.004,0l0,0.004l-0.005,0l0,0.01l-0.004,0l0,0.004l-0.005,0l0,0.004l-0.004,0l0,0.006l-0.005,0l0,0.004l-0.005,0l0,0.004l-0.004,0l0,0.004l-0.004,0l0,0.01l-0.004,0l0,0.005l-0.006,0l0,0.004l-0.004,0l0,0.004l-0.005,0l0,0.006l-0.004,0l0,0.004l-0.005,0l0,0.007l-0.004,0l0,0.004l-0.006,0l0,0.006l-0.002,0l0,0.004l-0.004,0l0,0.004l-0.005,0l0,0.004l-0.004,0l0,0.006l-0.005,0l0,0.004l-0.003,0c-0.001,0.001 -0.001,0.002 -0.001,0.002l0,0.002l-0.002,0l-0.004,0.004s-0.002,0.002 -0.004,0.003l0,0.006l-0.004,0l0,0.005l-0.004,0l0,0.004l-0.004,0l0,0.004l-0.003,0l-0.003,0.003l0,0.003l-0.002,0l-0.002,0.002l0,0.003l-0.002,0c-0.005,0.006 -0.007,0.01 -0.014,0.016c-0.002,0.002 -0.008,0.007 -0.012,0.01c-0.012,0.008 -0.027,0.021 -0.039,0.032c-0.008,0.005 -0.016,0.012 -0.022,0.017l0,0.001l-0.001,0c-0.016,0.013 -0.031,0.025 -0.049,0.039l0,0.001c-0.024,0.02 -0.047,0.039 -0.074,0.062l0,-0.001l-0.002,0c-0.057,0.047 -0.117,0.1 -0.186,0.159l0,0.001l-0.001,0c-0.169,0.148 -0.37,0.338 -0.595,0.568l-0.015,0.015l-0.004,0.004c-1.36,1.407 -3.503,4.339 -3.729,9.077c-0.02,0.392 -0.016,0.773 0.006,1.144l0,0.009c0.109,1.867 0.695,3.461 1.428,4.756l0,0.001c0.292,0.516 0.607,0.985 0.926,1.405l0,0.001c1.102,1.455 2.227,2.317 2.514,2.526c0.441,1.023 0.4,2.779 0.4,2.779l0.644,0.215s-0.131,-1.701 0.053,-2.522c0.057,-0.257 0.192,-0.476 0.349,-0.662c0.106,-0.075 0.42,-0.301 0.797,-0.645c0.018,-0.019 0.028,-0.036 0.044,-0.054c1.521,-1.418 4.362,-4.91 3.388,-10.599z"/>
 </g>
</svg>