<svg width="512" height="512" xmlns="http://www.w3.org/2000/svg">

 <g>
  <title>background</title>
  <rect fill="none" id="canvas_background" height="402" width="582" y="-1" x="-1"/>
 </g>
 <g>
  <title>Layer 1</title>
  <rect id="svg_3" fill="#ffffff" y="147.225" x="229.999" width="47.506" height="43.193"/>
  <rect id="svg_4" fill="#ffffff" y="199.115" x="229.999" width="47.506" height="42.69"/>
  <rect id="svg_5" fill="#ffffff" y="147.225" x="173.869" width="47.506" height="43.193"/>
  <rect id="svg_6" fill="#ffffff" y="199.043" x="286.2" width="47.507" height="42.691"/>
  <rect id="svg_7" fill="#ffffff" y="94.975" x="229.999" width="47.506" height="43.625"/>
  <rect id="svg_8" fill="#ffffff" y="147.225" x="117.738" width="47.505" height="43.193"/>
  <rect id="svg_9" fill="#ffffff" y="199.043" x="173.869" width="47.506" height="42.691"/>
  <path id="svg_10" fill="#ffffff" d="m476.441,219.095c-10.35,-6.972 -34.21,-9.487 -52.537,-6.036c-2.371,-17.249 -12.003,-32.27 -29.538,-45.782l-10.062,-6.685l-6.685,10.062c-13.225,19.98 -16.817,52.896 -2.658,74.602c-6.252,3.377 -18.545,7.978 -34.786,7.689l-312.418,0c-6.252,36.511 4.169,83.945 31.624,116.501c26.663,31.551 66.623,47.579 118.872,47.579c113.124,0 196.851,-52.104 236.021,-146.76c15.381,0.288 48.584,0.073 65.618,-32.483c1.078,-1.797 4.743,-9.488 6.107,-12.291l-9.558,-6.396z"/>
  <polygon id="svg_11" fill="#ffffff" points="109.186,199.043 109.113,199.043 61.68,199.043 61.68,241.734 109.186,241.734    "/>
  <rect id="svg_12" fill="#ffffff" y="199.043" x="117.738" width="47.505" height="42.691"/>
 </g>
</svg>