<svg width="24" height="24" xmlns="http://www.w3.org/2000/svg">

 <g>
  <title>background</title>
  <rect fill="none" id="canvas_background" height="402" width="582" y="-1" x="-1"/>
 </g>
 <g>
  <title>Layer 1</title>
  <path fill="#ffffff" id="svg_3" d="m14.435,12.973c0.269,0 0.492,0.133 0.686,0.396c0.192,0.265 0.294,0.588 0.294,0.975c0,0.385 -0.102,0.711 -0.294,0.973c-0.193,0.265 -0.417,0.396 -0.686,0.396c-0.278,0 -0.522,-0.131 -0.715,-0.396c-0.192,-0.262 -0.294,-0.588 -0.294,-0.973c0,-0.387 0.102,-0.71 0.294,-0.975c0.192,-0.264 0.436,-0.396 0.715,-0.396m3.44,-3.559c0.746,0.811 1.125,1.795 1.125,2.953c0,0.748 -0.086,1.423 -0.259,2.023c-0.175,0.597 -0.394,1.084 -0.654,1.459c-0.264,0.376 -0.588,0.705 -0.974,0.989c-0.386,0.286 -0.741,0.492 -1.065,0.623c-0.325,0.132 -0.695,0.233 -1.111,0.306c-0.417,0.071 -0.726,0.111 -0.943,0.123c-0.213,0.009 -0.438,0.014 -0.685,0.014c-0.055,0 -0.243,0.004 -0.547,0.015c-0.301,0.013 -0.56,0.016 -0.762,0.016s-0.461,-0.003 -0.762,-0.016c-0.304,-0.011 -0.492,-0.015 -0.547,-0.015c-0.246,0 -0.472,-0.005 -0.685,-0.014c-0.218,-0.012 -0.526,-0.052 -0.943,-0.123c-0.423,-0.072 -0.786,-0.174 -1.111,-0.306c-0.324,-0.131 -0.68,-0.337 -1.064,-0.623c-0.387,-0.284 -0.711,-0.613 -0.975,-0.989c-0.261,-0.375 -0.479,-0.862 -0.654,-1.459c-0.173,-0.6 -0.259,-1.275 -0.259,-2.023c0,-1.158 0.379,-2.143 1.125,-2.953c-0.082,-0.041 -0.085,-0.447 -0.008,-1.217c0.063,-0.771 0.227,-1.482 0.495,-2.132c0.934,0.099 2.09,0.629 3.471,1.581c0.466,-0.119 1.101,-0.183 1.917,-0.183c0.852,0 1.491,0.064 1.918,0.184c0.629,-0.425 1.23,-0.771 1.805,-1.034c0.584,-0.261 1.005,-0.416 1.269,-0.457l0.396,-0.09c0.27,0.649 0.434,1.36 0.496,2.132c0.076,0.769 0.073,1.175 -0.009,1.216m-5.845,7.82c1.688,0 2.954,-0.202 3.821,-0.607c0.855,-0.404 1.292,-1.238 1.292,-2.496c0,-0.73 -0.273,-1.34 -0.822,-1.828c-0.278,-0.263 -0.613,-0.425 -0.989,-0.486c-0.375,-0.061 -0.949,-0.061 -1.72,0c-0.769,0.062 -1.298,0.09 -1.582,0.09c-0.385,0 -0.8,-0.018 -1.319,-0.059c-0.52,-0.04 -0.928,-0.065 -1.223,-0.078c-0.294,-0.009 -0.609,0.027 -0.958,0.108c-0.345,0.082 -0.629,0.224 -0.853,0.425c-0.521,0.469 -0.79,1.077 -0.79,1.828c0,1.258 0.426,2.092 1.28,2.496c0.85,0.405 2.113,0.607 3.802,0.607l0.061,0m-2.434,-4.261c0.268,0 0.492,0.133 0.685,0.396c0.192,0.265 0.294,0.588 0.294,0.975c0,0.385 -0.102,0.711 -0.294,0.973c-0.192,0.265 -0.417,0.396 -0.685,0.396c-0.279,0 -0.522,-0.131 -0.716,-0.396c-0.192,-0.262 -0.294,-0.588 -0.294,-0.973c0,-0.387 0.102,-0.71 0.294,-0.975c0.193,-0.264 0.436,-0.396 0.716,-0.396"/>
 </g>
</svg>